<?xml version="1.0" encoding="UTF-8"?>
<svg width="128pt" height="128pt" version="1.1" viewBox="0 0 128 128" xmlns="http://www.w3.org/2000/svg">
 <path d="m64 4.4805c-20.992 0-38.066 17.074-38.066 38.066 0 6.0156 1.3555 11.762 4.043 17.09 0.078126 0.17969 0.16797 0.34375 0.28125 0.48828l22.707 35.16c-9.793 2.2266-16.5 7.3867-16.5 13.531 0 8.2578 12.082 14.719 27.52 14.719s27.52-6.4648 27.52-14.719c0-6.1445-6.707-11.289-16.5-13.531l22.824-35.355s0.078125-0.12891 0.11328-0.19141c2.7148-5.3516 4.0977-11.137 4.0977-17.176 0-20.992-17.074-38.066-38.066-38.066zm30.578 53.414-30.578 47.371-26.625-41.215-3.9414-6.1172c-2.4336-4.7891-3.6602-9.9727-3.6602-15.387 0-18.867 15.348-34.227 34.227-34.227s34.227 15.348 34.227 34.227c0 5.4023-1.2305 10.574-3.6367 15.348zm-30.578 61.785c-14.168 0-23.68-5.6328-23.68-10.879 0-4.0703 5.7227-8.3438 14.887-10.074l7.1797 11.125c0.35938 0.55078 0.96094 0.88281 1.6133 0.88281s1.2539-0.33203 1.6133-0.88281l7.1797-11.125c9.1641 1.7266 14.887 6.0039 14.887 10.086 0 5.2461-9.5117 10.879-23.68 10.879z"/>
 <path d="m65.422 15.168c-0.73047-0.79297-2.1133-0.79297-2.8398 0l-19.648 21.605c-0.51172 0.5625-0.64062 1.3711-0.33203 2.0742 0.30859 0.70312 1 1.1406 1.7539 1.1406h2.6758l-2.4062 21.938c-0.0625 0.53906 0.11328 1.0898 0.47266 1.4961 0.37109 0.41016 0.88281 0.64062 1.4336 0.64062h34.918c0.55078 0 1.0625-0.23047 1.4336-0.64062 0.35938-0.41016 0.53906-0.94531 0.47266-1.4961l-2.4062-21.938h2.6758c0.75391 0 1.4453-0.44922 1.7539-1.1406s0.17969-1.5117-0.33203-2.0742l-19.648-21.605zm-1.4219 32.613c1.8555 5.4531 4.6719 9.7148 6.8086 12.43h-13.633c2.1367-2.7148 4.9531-6.9766 6.8086-12.43zm-2.125-7.7969c-1.293 10.586-7.8711 18.227-9.7539 20.223h-3.4297l2.2148-20.223h10.98zm14.004 20.223c-1.8828-1.9961-8.4609-9.6133-9.7539-20.223h10.98l2.2148 20.223zm-27.176-24.062 15.297-16.832 15.297 16.832h-30.605z"/>
</svg>
